<?xml version="1.0" encoding="utf-8"?>
<!-- Generator: Adobe Illustrator 15.0.0, SVG Export Plug-In . SVG Version: 6.00 Build 0)  -->
<!DOCTYPE svg PUBLIC "-//W3C//DTD SVG 1.1//EN" "http://www.w3.org/Graphics/SVG/1.1/DTD/svg11.dtd">
<svg version="1.1" id="Layer_1" xmlns="http://www.w3.org/2000/svg" xmlns:xlink="http://www.w3.org/1999/xlink" x="0px" y="0px"
	 width="200px" height="200px" viewBox="0 0 200 200" enable-background="new 0 0 200 200" xml:space="preserve">
<g>
	<g>
		<g>
			<path fill="#FFFFFF" d="M144.7,55.925c5.875,15.768,6.327,32.917,5.28,49.532c-1.152,18.285-4.627,36.399-8.614,54.251
				c-0.197,0.882-0.632,5.324-1.667,5.618c-1.673,0.474-3.357,0.903-5.042,1.331c-3.622,0.921-7.271,1.737-10.919,2.545
				c-8.408,1.86-16.848,3.57-25.245,5.483c-14.48,3.299-29.401,7.054-42.396,14.478c0.512-0.03,1.023-0.06,1.534-0.089
				C58.138,174.577,51,161.727,44.69,149.14c-5.938-11.845-12.081-23.636-16.293-36.234c-7.912-23.668-7.009-53.447,11.626-71.862
				c9.351-9.241,22.145-14.35,34.987-16.2c1.387-0.2,3.526,0.02,4.891-0.673c2.069-1.051,3.996-2.842,5.896-4.18
				c5.858-4.123,11.886-7.987,18.223-11.335c13.785-7.285,29.961-10.94,44.016-2.346c8.688,5.313,11.284,15.023,9.653,24.574
				c-1.576,9.229-6.755,17.931-12.904,24.831c-0.448,0.502,1.431,0.277,1.762-0.096c10.326-11.585,19.902-31.591,8.491-45.542
				c-6.478-7.919-18.082-10.363-27.773-9.645c-10.67,0.79-21.056,5.672-30.111,11.068c-5.222,3.112-10.249,6.509-15.206,10.026
				c-4.333,3.073-9.882,2.889-14.996,4.136c-9.291,2.264-18.475,6.626-25.767,12.855C22.511,54.466,19.018,80.27,23.731,103.35
				c2.896,14.185,9.531,27.365,15.963,40.212c7.205,14.39,16.586,29.383,16.005,46.03c-0.015,0.437,1.393-0.008,1.534-0.089
				c25.327-14.468,56.232-15.997,83.859-23.822c0.225-0.063,0.796-0.219,0.862-0.506c4.23-18.246,7.862-36.646,9.574-55.316
				c1.66-18.105,1.524-37.214-4.898-54.451C146.438,54.886,144.533,55.477,144.7,55.925z"/>
		</g>
	</g>
	<path fill="#FFFFFF" d="M84.222,20.508C56.61,51.351,63.333,84.833,63.333,84.833c-16.529-30.292,5.765-59.31,5.765-59.31
		l3.632-0.544l4.528-0.79l5.055-2.314L84.222,20.508z"/>
	<g>
		<path fill="#FFFFFF" d="M69.5,189.333l14.834-17.999c10-18.334,20.773-42-4.559-57.334l-0.418-6.335l-0.257-5.657l-0.135-6.996
			l0.173-8.521l0.533-7.324l1.105-7.813l1.887-7.688l2.303-5.849l2.725-4.543l3.894-4.052l4.995-2.625l5.162-1.285l5.928-0.587
			l6.164-0.132l7.167-0.025l6.407-0.306C136.075,59.595,141.667,84,136,101c-5.333,15.667-29.333,35.334-15.666,53.667
			l15.428,14.041"/>
	</g>
	<g>
		<g>
			<path fill="#FFFFFF" d="M81.633,124.075c-0.978-10.551-1.766-21.109-1.693-31.714c0.08-11.752,0.946-24.486,6.256-35.181
				c11.485-23.13,44.65-2.789,60.372-21.156c0.557-0.65-1.393-0.525-1.801-0.048c-9.52,11.121-26.412,7.389-39.355,8.362
				c-10.229,0.77-17.561,5.239-21.889,14.616c-4.755,10.302-5.364,22.483-5.516,33.646c-0.146,10.689,0.709,21.359,1.694,31.993
				C79.761,125.241,81.702,124.819,81.633,124.075L81.633,124.075z"/>
		</g>
	</g>
	<circle fill="#DC5957" cx="102.062" cy="86.562" r="6.062"/>
	<circle fill="#FFFFFF" cx="103.901" cy="84.974" r="2.412"/>
	<circle fill="#DC5957" cx="124.062" cy="84.562" r="6.062"/>
	<circle fill="#FFFFFF" cx="125.901" cy="82.974" r="2.412"/>
	<g>
		<g>
			<path fill="#DC5957" d="M94.528,77.535c2.148-4.702,5.749-6.603,10.853-6.337c0.766,0.04,2.047-1.077,0.738-1.145
				c-5.939-0.309-10.846,1.83-13.397,7.413C92.319,78.346,94.253,78.138,94.528,77.535L94.528,77.535z"/>
		</g>
	</g>
	<g>
		<g>
			<path fill="#DC5957" d="M121.303,71.007c4.038-0.099,9.216,0.235,9.981,5.126c0.15,0.961,2.086,0.465,1.932-0.518
				c-0.888-5.672-7.078-6.238-11.769-6.124C120.312,69.521,119.992,71.039,121.303,71.007L121.303,71.007z"/>
		</g>
	</g>
	<g>
		<g>
			<path fill="#DC5957" d="M99.005,103.307c7.132,5.779,18.749,11.296,25.928,2.728c0.787-0.94-1.056-1.238-1.617-0.568
				c-6.365,7.598-16.765,1.635-22.822-3.272C99.83,101.654,98.139,102.605,99.005,103.307L99.005,103.307z"/>
		</g>
	</g>
	<path fill="none" stroke="#DC5957" stroke-miterlimit="10" d="M112.625,97.625c0.625-5.5,6.875-5.875,8.625-1.125"/>
	<path fill="none" stroke="#FFFFFF" stroke-miterlimit="10" d="M99.773,200c-1.263-3.33-2.839-6.812-4.773-10.5"/>
	<g>
		<path fill="#FFFFFF" d="M158.904,200h20.555c0.011-2.244-0.621-4.527-2.102-6.836c-9.581-15.623-31.355-27.168-45.482-30.641
			l-11.811,19.594l20.199,2.707C143.775,189.414,156.603,193.426,158.904,200z"/>
	</g>
	<g>
		<path fill="#FFFFFF" d="M102.001,153c-11.059,15.975-33.431,29.121-42.874,47h26.034c4.719-4.887,11.207-9.4,13.173-13.332
			L121.25,179L102.001,153z"/>
	</g>
	<g>
		<path fill="#DC5957" d="M146.383,200c-2.135-18.749-9.315-37.694-26.756-46.334c0,0,6.238,13.674,0.186,18.834
			c-2.512,2.143-9.438,1-17.25-4.75c-1.719-1.266-11.537-10.029-11.537-10.029l-3.744,8.044c0,0,1.832,1.152,2.349,1.651
			c6.112,5.912,6.825,11.403,8.87,19.584c1.1,4.557,2.791,8.816,4.642,12.997"/>
		<g>
			<path fill="#FFFFFF" d="M147.349,199.741c-2.252-18.646-9.419-37.508-26.969-46.602c-0.416-0.216-2.066,0.008-1.719,0.785
				c3.188,7.133,5.86,21.973-6.806,17.991c-7.79-2.449-14.004-9.308-19.941-14.604c-0.471-0.42-1.519-0.283-1.804,0.33
				c-1.248,2.681-2.496,5.362-3.744,8.044c-0.109,0.234-0.063,0.462,0.162,0.605c5.043,3.219,7.664,8.394,9.273,13.991
				c1.96,6.817,3.52,13.43,6.374,19.974c0.348,0.796,2.256,0.227,1.932-0.518c-2.271-5.205-4.029-10.425-5.359-15.945
				c-1.05-4.355-2.206-8.532-4.553-12.383c-0.974-1.597-2.351-3.349-3.813-4.521c-1.386-1.11-2.313-0.773-1.744-1.995
				c1.101-2.365,2.201-4.729,3.302-7.095c-0.601,0.11-1.203,0.22-1.804,0.33c6.931,6.183,15.656,16.124,25.722,16.017
				c10.755-0.116,7.562-14.417,4.734-20.739c-0.573,0.262-1.146,0.523-1.719,0.785c17.36,8.996,24.318,27.654,26.543,46.066
				C145.515,201.067,147.453,200.603,147.349,199.741L147.349,199.741z"/>
		</g>
	</g>
	<g>
		<path fill="#FFFFFF" d="M146.002,197.022c-1.002,1.063-2.425,1.728-4.002,1.728c-3.037,0-5.5-2.463-5.5-5.5s2.463-5.5,5.5-5.5
			c0.896,0,1.741,0.215,2.488,0.595"/>
		<circle fill="#FFFFFF" cx="128" cy="180.25" r="5.5"/>
		<circle fill="#FFFFFF" cx="109" cy="185.25" r="5.5"/>
		<path fill="#FFFFFF" d="M135.427,167.514c-1.001,1.356-2.611,2.236-4.427,2.236c-3.037,0-5.5-2.463-5.5-5.5
			c0-2.055,1.127-3.846,2.795-4.79"/>
		<circle fill="#FFFFFF" cx="94" cy="173.25" r="5.5"/>
		<path fill="#FFFFFF" d="M110.352,200c-0.566-2.435-2.745-4.25-5.352-4.25c-1.206,0-2.322,0.389-3.229,1.047l1.43,3.203H110.352z"
			/>
		<path fill="#FFFFFF" d="M129.443,200c0.033-0.246,0.057-0.495,0.057-0.75c0-3.037-2.463-5.5-5.5-5.5s-5.5,2.463-5.5,5.5
			c0,0.255,0.023,0.504,0.057,0.75H129.443z"/>
	</g>
	<path fill="none" stroke="#DC5957" stroke-width="0.5" stroke-miterlimit="10" d="M85.647,165.996c0,0,8.935,3.587,12.685,25.088"
		/>
	<circle fill="#DC5957" cx="94.188" cy="151.688" r="1.812"/>
	<circle fill="#DC5957" cx="98.188" cy="152.688" r="1.812"/>
	<circle fill="#DC5957" cx="110.188" cy="153.688" r="1.812"/>
	<circle fill="#DC5957" cx="114.188" cy="152.688" r="1.812"/>
	<circle fill="#DC5957" cx="118.188" cy="151.688" r="1.812"/>
	<circle fill="#DC5957" cx="102.188" cy="153.688" r="1.812"/>
	<circle fill="#DC5957" cx="106.188" cy="153.688" r="1.812"/>
</g>
</svg>
